:SAMPLES-PER-SECOND 30
:FULLY-SPECIFIED
:DEGREES
140
root  -36.0174 40.9927 40.1161 -2.21697 -2.57229 0.912818
RightUpLeg  -6.91954 -7.55148 -1.73994
RightLeg  7.13745 -4.22686 4.55965
RightFoot  2.50492 0.82134 -6.61247
RightToes  -1.74624e-010 0 -3.6325e-017
Spine  9.46351 0.372207 5.77432
Spine1  0.760298 1.65674 -4.41418
HEad  -13.381 6.65416 -1.45928
LeftShoulder1  2.95874 -4.75007 -29.7149
LeftArm  -12.2856 22.6872 -9.94806
LeftForeArm  18.8706 -14.9395 -3.43613
LeftHand  -0.244104 0.0205437 5.32207
RightShoulder  2.38714 4.59302 23.2783
RightArm  -11.704 -19.9993 13.396
RightForeArm  -0.562114 13.2141 5.42072
RightHand  -0.732164 3.49497 -9.80469
LeftUpLeg  -10.8199 13.0774 1.64016
LeftLeg  22.9119 4.63565 2.54375
LeftFoot  -12.2632 0.031584 -5.53297
LeftToes  1.28235e-010 -1.10989e-010 2.53219e-011
141
root  -36.0264 41.0244 40.4849 -2.57514 -3.61587 0.537498
RightUpLeg  -5.82532 -7.39472 -1.38562
RightLeg  6.88081 -3.38864 4.76664
RightFoot  2.07678 0.819161 -6.82737
RightToes  -1.74624e-010 0 -3.6325e-017
Spine  9.11602 0.673114 6.92035
Spine1  1.01784 2.13946 -5.02386
HEad  -12.6812 6.51622 -2.17062
LeftShoulder1  2.3712 -3.79981 -26.192
LeftArm  -14.4928 22.8194 -7.09703
LeftForeArm  15.9165 -12.8316 -2.77538
LeftHand  -0.244104 0.0205437 5.32207
RightShoulder  2.0209 4.24082 19.6591
RightArm  -11.5072 -16.9591 8.80205
RightForeArm  -0.767415 11.0881 5.60239
RightHand  -0.860908 4.10515 -10.7571
LeftUpLeg  -8.26225 14.0479 2.38778
LeftLeg  16.4408 4.02283 1.37352
LeftFoot  -10.6444 0.09767 -5.99024
LeftToes  1.28235e-010 -1.10989e-010 2.53219e-011
142
root  -36.0353 41.0537 40.8231 -2.92917 -4.2163 -0.0682267
RightUpLeg  -4.57225 -7.14725 -0.924937
RightLeg  6.3654 -3.04689 4.9662
RightFoot  1.56839 0.73215 -6.36459
RightToes  -1.74624e-010 0 -3.6325e-017
Spine  8.58048 0.688416 7.55765
Spine1  1.50065 2.18898 -5.10006
HEad  -12.4295 5.54311 -1.95239
LeftShoulder1  1.70591 -2.53179 -21.7798
LeftArm  -15.2248 23.1616 -5.19509
LeftForeArm  13.3765 -12.1044 -2.3931
LeftHand  -0.244104 0.0205437 5.32207
RightShoulder  1.60947 3.47856 16.3441
RightArm  -12.3121 -12.9361 4.98749
RightForeArm  -2.9899 8.75798 5.68625
RightHand  -1.0063 4.32744 -12.2664
LeftUpLeg  -5.99553 12.0337 3.66392
LeftLeg  11.6254 5.50002 -0.225487
LeftFoot  -6.26814 0.219524 -4.31549
LeftToes  1.28235e-010 -1.10989e-010 2.53219e-011
143
root  -36.0813 41.0977 41.1392 -2.99141 -4.16745 -0.438343
RightUpLeg  -3.55213 -6.86646 -0.611221
RightLeg  5.62394 -3.31269 4.97614
RightFoot  1.27581 0.65352 -5.82431
RightToes  -1.74624e-010 0 -3.6325e-017
Spine  7.5324 0.632304 6.98807
Spine1  2.13228 1.87014 -4.16746
HEad  -11.8703 4.92472 -1.7702
LeftShoulder1  1.16985 -1.25004 -17.8741
LeftArm  -15.0147 22.9372 -3.3205
LeftForeArm  11.6491 -11.8559 -2.37043
LeftHand  -0.244104 0.0205437 5.32207
RightShoulder  1.19038 2.4015 13.1994
RightArm  -13.5144 -9.01287 2.25025
RightForeArm  -5.74779 7.06411 5.62955
RightHand  -1.07695 4.31996 -13.0975
LeftUpLeg  -4.73251 8.83077 4.34762
LeftLeg  9.09604 7.57462 -1.19791
LeftFoot  -1.88666 0.173462 -1.90097
LeftToes  1.28235e-010 -1.10989e-010 2.53219e-011
144
root  -36.1556 41.1565 41.416 -2.95016 -3.56192 -0.339697
RightUpLeg  -2.844 -6.75455 -0.661871
RightLeg  5.12657 -3.89781 4.79431
RightFoot  1.01383 0.610272 -5.56525
RightToes  -1.74624e-010 0 -3.6325e-017
Spine  6.70556 0.538237 5.90636
Spine1  2.09385 1.55095 -3.53784
HEad  -10.9457 5.72216 -0.650091
LeftShoulder1  0.800709 -0.256956 -14.1507
LeftArm  -14.7354 21.855 -1.76153
LeftForeArm  11.3636 -11.6705 -2.45528
LeftHand  -0.244104 0.0205437 5.32207
RightShoulder  0.920255 1.58199 10.9434
RightArm  -14.7791 -6.67112 0.116234
RightForeArm  -8.40438 6.47848 5.57422
RightHand  -1.28853 5.05549 -14.5141
LeftUpLeg  -3.97884 7.25218 4.22281
LeftLeg  8.03004 8.14327 -1.36016
LeftFoot  -0.3368 0.0929899 -0.924334
LeftToes  1.28235e-010 -1.10989e-010 2.53219e-011
145
root  -36.2148 41.2104 41.6507 -2.90235 -2.88097 -0.0495547
RightUpLeg  -2.34013 -6.75848 -0.910659
RightLeg  4.90131 -4.39766 4.56633
RightFoot  0.57172 0.542129 -5.14948
RightToes  -1.74624e-010 0 -3.6325e-017
Spine  6.16365 0.423721 5.36059
Spine1  1.80731 1.48847 -4.0484
HEad  -10.1314 5.73238 1.07929
LeftShoulder1  0.543258 0.503687 -10.7668
LeftArm  -14.9516 20.0348 -0.789101
LeftForeArm  11.4973 -11.5055 -2.52039
LeftHand  -0.244104 0.0205437 5.32207
RightShoulder  0.747789 0.934861 9.47313
RightArm  -16.3776 -5.5513 -1.15886
RightForeArm  -10.4004 6.47101 5.37323
RightHand  -1.55247 6.04533 -16.0301
LeftUpLeg  -3.17135 6.48021 4.07703
LeftLeg  7.06575 8.48325 -1.6806
LeftFoot  -0.91803 0.126037 -1.3248
LeftToes  1.28235e-010 -1.10989e-010 2.53219e-011
